<svg
  width="61"
  height="36"
  viewBox="0 0 61 36"
  fill="none"
  xmlns="http://www.w3.org/2000/svg"
>
  <g clip-path="url(#clip0_1_148)">
    <path
      d="M20.6844 5.66095H14.464C14.078 5.66095 13.853 5.96676 13.853 6.36805C13.853 6.76935 14.0941 7.02708 14.464 7.02708H16.8263V17.7311C16.8263 18.1491 17.1155 18.3742 17.5495 18.3742C17.9835 18.3742 18.2726 18.1491 18.2726 17.7311V7.02708H20.6837C21.0536 7.02708 21.2786 6.75399 21.2786 6.36805C21.2786 5.98212 21.0696 5.66095 20.6837 5.66095H20.6844Z"
      fill="black"
    />
    <path
      d="M25.2021 18.455C27.5324 18.455 28.5133 17.153 28.5133 14.1476V6.19183C28.5133 5.77384 28.2081 5.54882 27.7901 5.54882C27.3721 5.54882 27.067 5.77384 27.067 6.19183V14.1316C27.067 16.4138 26.456 17.1443 25.1867 17.1443C23.9975 17.1443 23.3385 16.4459 23.3385 14.1469V6.19116C23.3385 5.77317 23.0173 5.54816 22.6154 5.54816C22.1814 5.54816 21.8762 5.77317 21.8762 6.19116V14.1469C21.8762 17.2171 22.8724 18.4543 25.2034 18.4543L25.2021 18.455Z"
      fill="black"
    />
    <path
      d="M40.7785 5.66095H29.7366C29.3506 5.66095 29.1256 5.96676 29.1256 6.36805C29.1256 6.76935 29.3667 7.02708 29.7366 7.02708H32.0989V17.619C32.0989 18.037 32.388 18.262 32.8221 18.262C33.2561 18.262 33.5452 18.037 33.5452 17.619V7.02708H36.9205V17.619C36.9205 18.037 37.2096 18.262 37.6436 18.262C38.0776 18.262 38.3667 18.037 38.3667 17.619V7.02708H40.7778C41.1477 7.02708 41.3728 6.75399 41.3728 6.36805C41.3728 5.98212 41.1638 5.66095 40.7778 5.66095H40.7785Z"
      fill="black"
    />
    <path
      d="M30.5731 35.6492C10.8576 35.6492 0 29.4715 0 18.2533C0 15.3815 0.732478 12.7968 2.17673 10.5713C3.57692 8.41329 5.65751 6.57909 8.35973 5.11948C13.5959 2.29172 21.0696 0.857483 30.5731 0.857483C40.0766 0.857483 47.4575 2.28238 52.6583 5.0921C55.3538 6.54838 57.4291 8.38191 58.8259 10.5413C60.2682 12.7714 60.9993 15.3662 60.9993 18.254C60.9993 21.1418 60.2682 23.7366 58.8259 25.9667C57.4291 28.1261 55.3545 29.959 52.6583 31.4159C47.4575 34.2256 40.0266 35.6505 30.5731 35.6505V35.6492ZM30.5731 2.1929C25.9853 2.1929 21.8268 2.54078 18.2131 3.22652C14.5921 3.91426 11.4906 4.94587 8.99406 6.29465C3.91211 9.0396 1.33542 13.0632 1.33542 18.2533C1.33542 23.4434 3.91211 27.5038 8.99339 30.2394C14.0159 32.943 21.2766 34.3138 30.5731 34.3138C39.8696 34.3138 47.0201 32.943 52.024 30.2401C57.0939 27.5011 59.6646 23.4682 59.6646 18.2533C59.6646 13.0385 57.0939 9.00555 52.024 6.2666C47.0201 3.56304 39.8029 2.1929 30.5731 2.1929Z"
      fill="black"
    />
    <path
      d="M44.4428 5.48138C42.013 5.48138 40.8218 7.97595 40.8218 11.9989C40.8218 16.0219 42.029 18.5485 44.4428 18.5485C46.8565 18.5485 48.0638 16.0539 48.0638 11.9989C48.0638 7.9439 46.8726 5.48138 44.4428 5.48138ZM44.4428 17.197C43.0105 17.197 42.3021 15.0891 42.3021 12.0149C42.3021 8.94079 42.9938 6.8168 44.4428 6.8168C45.8917 6.8168 46.5828 8.92477 46.5828 11.9181C46.5828 15.1204 45.891 17.1964 44.4428 17.1964V17.197Z"
      fill="black"
    />
    <path
      d="M19.4364 19.2255C18.9697 19.2255 18.6959 19.4672 18.6959 19.9012V31.2944C18.6959 31.7291 18.9697 31.9541 19.4364 31.9541C19.9031 31.9541 20.1769 31.7291 20.1769 31.2944V19.9012C20.1769 19.4666 19.8871 19.2255 19.4364 19.2255Z"
      fill="black"
    />
    <path
      d="M33.6419 19.0646C31.2121 19.0646 30.0209 21.5592 30.0209 25.5822C30.0209 29.6051 31.2281 32.1317 33.6419 32.1317C36.0556 32.1317 37.2629 29.6372 37.2629 25.5822C37.2629 21.5272 36.0717 19.0646 33.6419 19.0646ZM33.6419 30.7803C32.2096 30.7803 31.5012 28.6723 31.5012 25.5982C31.5012 22.524 32.1929 20.4001 33.6419 20.4001C35.0908 20.4001 35.7819 22.508 35.7819 25.5014C35.7819 28.7037 35.0901 30.7796 33.6419 30.7796V30.7803Z"
      fill="black"
    />
    <path
      d="M28.0331 19.2255C27.6305 19.2255 27.288 19.4345 27.288 19.8211L27.32 23.5222C27.3361 25.8238 27.529 28.3017 27.6899 30.2815H27.5317C27.0329 28.4626 26.3752 26.0328 25.7316 24.198L24.0856 19.9012C23.9408 19.4666 23.667 19.2255 23.0233 19.2255C22.4765 19.2255 21.9817 19.5474 21.9817 20.0301V31.3592C21.9817 31.7458 22.3449 31.9548 22.7309 31.9548C23.1168 31.9548 23.4894 31.7458 23.4894 31.3592L23.4413 27.9638C23.4093 25.3244 23.2964 22.9106 23.1515 20.8995H23.3031C23.7858 22.7016 24.4015 25.0353 25.0451 26.8374L26.7398 31.2149C26.9488 31.7945 27.2706 31.9554 27.8181 31.9554C28.3169 31.9554 28.7483 31.6336 28.7483 31.1188V19.8218C28.7483 19.4359 28.4344 19.2262 28.0325 19.2262L28.0331 19.2255Z"
      fill="black"
    />
    <path
      d="M41.7706 25.2075L44.1843 20.1062C44.2164 20.0261 44.2324 19.9453 44.2324 19.8645C44.2324 19.5914 43.9907 19.3497 43.7176 19.2689C43.6208 19.2369 43.5246 19.2209 43.4278 19.2209C43.1701 19.2209 42.9611 19.3337 42.8322 19.6068L40.9012 24.0003L38.9054 19.5908C38.7765 19.333 38.5515 19.2042 38.2938 19.2042C38.197 19.2042 38.1008 19.2202 37.988 19.2529C37.7142 19.3491 37.5052 19.5908 37.5052 19.8806C37.5052 19.9767 37.5212 20.0575 37.5693 20.1543L39.9831 25.2396L37.3436 30.9846C37.2956 31.0814 37.2795 31.1775 37.2795 31.2744C37.2795 31.5481 37.4565 31.7731 37.7302 31.87C37.8431 31.918 37.9553 31.9341 38.0681 31.9341C38.3258 31.9341 38.5509 31.8212 38.6637 31.5481L40.9005 26.5269L43.0733 31.5481C43.1861 31.8219 43.4111 31.9341 43.6689 31.9341C43.7817 31.9341 43.9106 31.918 44.0227 31.87C44.2965 31.7892 44.4735 31.5321 44.4735 31.2423C44.4735 31.1462 44.4574 31.0493 44.4093 30.9532L41.7699 25.2082L41.7706 25.2075Z"
      fill="black"
    />
  </g>
  <defs>
    <clipPath id="clip0_1_148">
      <rect
        width="61"
        height="34.7917"
        fill="white"
        transform="translate(0 0.857483)"
      />
    </clipPath>
  </defs>
</svg>