<svg width="46" height="43" viewBox="0 0 46 43" fill="none" xmlns="http://www.w3.org/2000/svg">
  <path d="M20.3511 23.0904H10.8523C9.72147 23.0904 9.13345 22.3667 9.13345 21.1907C9.13345 20.0599 9.72147 19.2909 10.8523 19.2909H20.3511V10.1991C20.3511 9.02308 21.0749 8.43506 22.2057 8.43506C23.3817 8.43506 24.1507 9.02308 24.1507 10.1991V19.2909H33.5139C34.6899 19.2909 35.2327 20.0599 35.2327 21.1907C35.2327 22.3667 34.6899 23.0904 33.5139 23.0904H24.1507V32.5441C24.1507 33.7201 23.3817 34.3081 22.2057 34.3081C21.0749 34.3081 20.3511 33.7201 20.3511 32.5441V23.0904Z" fill="black"/>
  <path d="M22.7011 1.37695C34.5605 1.37709 44.0254 10.3878 44.0254 21.3252C44.0253 32.2625 34.5604 41.2733 22.7011 41.2734C10.8417 41.2734 1.37698 32.2626 1.37692 21.3252C1.37692 10.3877 10.8417 1.37695 22.7011 1.37695Z" stroke="black" stroke-width="2.75309"/>
</svg>
